<svg width="249" height="213" viewBox="0 0 249 213" fill="none" xmlns="http://www.w3.org/2000/svg">
<path d="M244.502 212.82C246.347 212.82 247.496 210.818 246.565 209.225L126.469 3.69882C125.546 2.12013 123.265 2.12013 122.342 3.69882L2.24537 209.225C1.31449 210.818 2.46348 212.82 4.30858 212.82H32.2283C33.0774 212.82 33.8628 212.37 34.2913 211.637L122.342 61.0233C123.265 59.4452 125.546 59.4452 126.468 61.0233L214.519 211.637C214.948 212.37 215.733 212.82 216.582 212.82L244.502 212.82Z" fill="#299345"/>
<path d="M126.513 118.453C125.582 116.856 123.269 116.876 122.365 118.488L71.4418 209.261C70.5482 210.854 71.6994 212.82 73.5258 212.82H177.742C179.556 212.82 180.709 210.877 179.84 209.285L168.101 187.778C167.682 187.011 166.878 186.534 166.004 186.534H121.301C119.479 186.534 118.327 184.576 119.212 182.983L140.475 144.71C140.885 143.972 140.875 143.074 140.45 142.345L126.513 118.453Z" fill="#79BA02"/>
</svg>
